# 3ds Max Wavefront OBJ Exporter v0.97b - (c)2007 guruware
# File Created: 22.10.2018 10:39:53

mtllib Grass.mtl

#
# object Grass
#

v  0.2348 0.0000 -33.3512
v  0.2348 0.0000 -65.8512
v  0.2348 25.0000 -65.8512
v  0.2348 25.0000 -33.3512
v  0.2348 50.0000 -65.8512
v  0.2348 50.0000 -33.3512
v  0.2348 75.0000 -65.8512
v  0.2348 75.0000 -33.3512
v  0.2348 100.0000 -65.8512
v  0.2348 100.0000 -33.3512
v  0.2348 0.0000 -0.8512
v  0.2348 25.0000 -0.8512
v  0.2348 50.0000 -0.8512
v  0.2348 75.0000 -0.8512
v  0.2348 100.0000 -0.8512
v  0.2348 0.0000 31.6488
v  0.2348 25.0000 31.6488
v  0.2348 50.0000 31.6488
v  0.2348 75.0000 31.6488
v  0.2348 100.0000 31.6488
v  0.2348 0.0000 64.1488
v  0.2348 25.0000 64.1488
v  0.2348 50.0000 64.1488
v  0.2348 75.0000 64.1488
v  0.2348 100.0000 64.1488
v  32.7348 0.0000 -0.8512
v  65.2348 0.0000 -0.8512
v  65.2348 25.0000 -0.8512
v  32.7348 25.0000 -0.8512
v  65.2348 50.0000 -0.8512
v  32.7348 50.0000 -0.8512
v  65.2348 75.0000 -0.8512
v  32.7348 75.0000 -0.8512
v  65.2348 100.0000 -0.8512
v  32.7348 100.0000 -0.8512
v  -32.2652 0.0000 -0.8512
v  -32.2652 25.0000 -0.8512
v  -32.2652 50.0000 -0.8512
v  -32.2652 75.0000 -0.8512
v  -32.2652 100.0000 -0.8512
v  -64.7652 -0.0000 -0.8512
v  -64.7652 25.0000 -0.8512
v  -64.7652 50.0000 -0.8512
v  -64.7652 75.0000 -0.8512
v  -64.7652 100.0000 -0.8512
v  23.2157 0.0000 22.1297
v  46.1967 0.0000 45.1107
v  46.1967 25.0000 45.1107
v  23.2157 25.0000 22.1297
v  46.1967 50.0000 45.1107
v  23.2157 50.0000 22.1297
v  46.1967 75.0000 45.1107
v  23.2157 75.0000 22.1297
v  46.1967 100.0000 45.1107
v  23.2157 100.0000 22.1297
v  -22.7462 0.0000 -23.8322
v  -22.7462 25.0000 -23.8322
v  -22.7462 50.0000 -23.8322
v  -22.7462 75.0000 -23.8322
v  -22.7462 100.0000 -23.8322
v  -45.7272 -0.0000 -46.8132
v  -45.7272 25.0000 -46.8132
v  -45.7272 50.0000 -46.8132
v  -45.7272 75.0000 -46.8132
v  -45.7272 100.0000 -46.8132
v  23.2157 0.0000 -23.8322
v  46.1967 0.0000 -46.8132
v  46.1967 25.0000 -46.8132
v  23.2157 25.0000 -23.8322
v  46.1967 50.0000 -46.8132
v  23.2157 50.0000 -23.8322
v  46.1967 75.0000 -46.8132
v  23.2157 75.0000 -23.8322
v  46.1967 100.0000 -46.8132
v  23.2157 100.0000 -23.8322
v  -22.7462 0.0000 22.1297
v  -22.7462 25.0000 22.1297
v  -22.7462 50.0000 22.1297
v  -22.7462 75.0000 22.1297
v  -22.7462 100.0000 22.1297
v  -45.7272 -0.0000 45.1107
v  -45.7272 25.0000 45.1107
v  -45.7272 50.0000 45.1107
v  -45.7272 75.0000 45.1107
v  -45.7272 100.0000 45.1107
v  46.1967 0.0000 -33.3512
v  46.1967 -0.0000 -65.8512
v  54.7472 23.4923 -65.8512
v  54.7472 23.4923 -33.3512
v  63.2977 46.9846 -65.8512
v  63.2977 46.9846 -33.3512
v  71.8482 70.4769 -65.8512
v  71.8482 70.4770 -33.3512
v  80.3987 93.9693 -65.8512
v  80.3987 93.9693 -33.3512
v  46.1967 0.0000 -0.8512
v  54.7472 23.4923 -0.8512
v  63.2977 46.9846 -0.8512
v  71.8482 70.4770 -0.8512
v  80.3987 93.9693 -0.8512
v  46.1967 0.0000 31.6488
v  54.7472 23.4923 31.6488
v  63.2977 46.9846 31.6488
v  71.8482 70.4770 31.6488
v  80.3987 93.9693 31.6488
v  46.1967 0.0000 64.1488
v  54.7472 23.4923 64.1488
v  63.2977 46.9846 64.1488
v  71.8482 70.4770 64.1488
v  80.3987 93.9693 64.1488
v  32.7348 -0.0000 45.1107
v  65.2347 -0.0000 45.1107
v  65.2348 23.4923 53.6612
v  32.7348 23.4923 53.6612
v  65.2348 46.9846 62.2117
v  32.7348 46.9846 62.2117
v  65.2347 70.4769 70.7622
v  32.7348 70.4770 70.7622
v  65.2348 93.9693 79.3127
v  32.7348 93.9693 79.3127
v  0.2348 0.0000 45.1107
v  0.2348 23.4923 53.6612
v  0.2348 46.9846 62.2117
v  0.2348 70.4770 70.7622
v  0.2348 93.9693 79.3127
v  -32.2652 0.0000 45.1107
v  -32.2652 23.4923 53.6612
v  -32.2652 46.9846 62.2117
v  -32.2652 70.4770 70.7622
v  -32.2652 93.9693 79.3127
v  -64.7653 0.0000 45.1107
v  -64.7652 23.4923 53.6612
v  -64.7652 46.9846 62.2117
v  -64.7653 70.4770 70.7622
v  -64.7652 93.9693 79.3127
v  -45.7272 0.0000 -33.3512
v  -45.7272 0.0000 -65.8512
v  -54.2777 23.4923 -65.8512
v  -54.2777 23.4923 -33.3512
v  -62.8282 46.9846 -65.8512
v  -62.8282 46.9846 -33.3512
v  -71.3787 70.4770 -65.8512
v  -71.3787 70.4769 -33.3512
v  -79.9292 93.9693 -65.8512
v  -79.9292 93.9693 -33.3512
v  -45.7272 0.0000 -0.8512
v  -54.2777 23.4923 -0.8512
v  -62.8282 46.9846 -0.8512
v  -71.3787 70.4769 -0.8512
v  -79.9292 93.9693 -0.8512
v  -45.7272 0.0000 31.6488
v  -54.2777 23.4923 31.6488
v  -62.8282 46.9846 31.6488
v  -71.3787 70.4769 31.6488
v  -79.9292 93.9693 31.6488
v  -45.7272 -0.0000 64.1488
v  -54.2777 23.4923 64.1488
v  -62.8282 46.9846 64.1488
v  -71.3787 70.4769 64.1488
v  -79.9292 93.9693 64.1488
v  32.7348 0.0000 -46.8132
v  65.2348 0.0000 -46.8132
v  65.2348 23.4923 -55.3637
v  32.7348 23.4923 -55.3637
v  65.2348 46.9846 -63.9142
v  32.7348 46.9846 -63.9142
v  65.2348 70.4769 -72.4647
v  32.7348 70.4769 -72.4647
v  65.2348 93.9693 -81.0152
v  32.7348 93.9693 -81.0152
v  0.2348 0.0000 -46.8132
v  0.2348 23.4923 -55.3637
v  0.2348 46.9846 -63.9142
v  0.2348 70.4769 -72.4647
v  0.2348 93.9693 -81.0152
v  -32.2652 0.0000 -46.8132
v  -32.2652 23.4923 -55.3637
v  -32.2652 46.9846 -63.9142
v  -32.2652 70.4769 -72.4647
v  -32.2652 93.9693 -81.0152
v  -64.7652 -0.0000 -46.8132
v  -64.7652 23.4923 -55.3637
v  -64.7652 46.9846 -63.9142
v  -64.7652 70.4769 -72.4647
v  -64.7652 93.9693 -81.0152
# 185 vertices

vn 1.0000 0.0000 0.0000
vn 0.0000 0.0000 1.0000
vn -0.7071 -0.0000 0.7071
vn 0.7071 0.0000 0.7071
vn 0.9397 -0.3420 0.0000
vn -0.0000 -0.3420 0.9397
vn 0.9397 0.3420 0.0000
vn -0.0000 0.3420 0.9397
# 8 vertex normals

vt 0.7500 0.0237 0.5000
vt 1.0000 0.0237 0.5000
vt 1.0000 0.2657 0.5000
vt 0.7500 0.2657 0.5000
vt 1.0000 0.5077 0.5000
vt 0.7500 0.5077 0.5000
vt 1.0000 0.7498 0.5000
vt 0.7500 0.7498 0.5000
vt 1.0000 0.9918 0.5000
vt 0.7500 0.9918 0.5000
vt 0.5000 0.0237 0.5000
vt 0.5000 0.2657 0.5000
vt 0.5000 0.5077 0.5000
vt 0.5000 0.7498 0.5000
vt 0.5000 0.9918 0.5000
vt 0.2500 0.0237 0.5000
vt 0.2500 0.2657 0.5000
vt 0.2500 0.5077 0.5000
vt 0.2500 0.7498 0.5000
vt 0.2500 0.9918 0.5000
vt 0.0000 0.0237 0.5000
vt 0.0000 0.2657 0.5000
vt 0.0000 0.5077 0.5000
vt 0.0000 0.7498 0.5000
vt 0.0000 0.9918 0.5000
# 25 texture coords

o Grass
g Grass
usemtl wire_176026026
s 1
f 1/1/1 2/2/1 3/3/1 4/4/1 
f 4/4/1 3/3/1 5/5/1 6/6/1 
f 6/6/1 5/5/1 7/7/1 8/8/1 
f 8/8/1 7/7/1 9/9/1 10/10/1 
f 11/11/1 1/1/1 4/4/1 12/12/1 
f 12/12/1 4/4/1 6/6/1 13/13/1 
f 13/13/1 6/6/1 8/8/1 14/14/1 
f 14/14/1 8/8/1 10/10/1 15/15/1 
f 16/16/1 11/11/1 12/12/1 17/17/1 
f 17/17/1 12/12/1 13/13/1 18/18/1 
f 18/18/1 13/13/1 14/14/1 19/19/1 
f 19/19/1 14/14/1 15/15/1 20/20/1 
f 21/21/1 16/16/1 17/17/1 22/22/1 
f 22/22/1 17/17/1 18/18/1 23/23/1 
f 23/23/1 18/18/1 19/19/1 24/24/1 
f 24/24/1 19/19/1 20/20/1 25/25/1 
f 26/1/2 27/2/2 28/3/2 29/4/2 
f 29/4/2 28/3/2 30/5/2 31/6/2 
f 31/6/2 30/5/2 32/7/2 33/8/2 
f 33/8/2 32/7/2 34/9/2 35/10/2 
f 11/11/2 26/1/2 29/4/2 12/12/2 
f 12/12/2 29/4/2 31/6/2 13/13/2 
f 13/13/2 31/6/2 33/8/2 14/14/2 
f 14/14/2 33/8/2 35/10/2 15/15/2 
f 36/16/2 11/11/2 12/12/2 37/17/2 
f 37/17/2 12/12/2 13/13/2 38/18/2 
f 38/18/2 13/13/2 14/14/2 39/19/2 
f 39/19/2 14/14/2 15/15/2 40/20/2 
f 41/21/2 36/16/2 37/17/2 42/22/2 
f 42/22/2 37/17/2 38/18/2 43/23/2 
f 43/23/2 38/18/2 39/19/2 44/24/2 
f 44/24/2 39/19/2 40/20/2 45/25/2 
f 46/1/3 47/2/3 48/3/3 49/4/3 
f 49/4/3 48/3/3 50/5/3 51/6/3 
f 51/6/3 50/5/3 52/7/3 53/8/3 
f 53/8/3 52/7/3 54/9/3 55/10/3 
f 11/11/3 46/1/3 49/4/3 12/12/3 
f 12/12/3 49/4/3 51/6/3 13/13/3 
f 13/13/3 51/6/3 53/8/3 14/14/3 
f 14/14/3 53/8/3 55/10/3 15/15/3 
f 56/16/3 11/11/3 12/12/3 57/17/3 
f 57/17/3 12/12/3 13/13/3 58/18/3 
f 58/18/3 13/13/3 14/14/3 59/19/3 
f 59/19/3 14/14/3 15/15/3 60/20/3 
f 61/21/3 56/16/3 57/17/3 62/22/3 
f 62/22/3 57/17/3 58/18/3 63/23/3 
f 63/23/3 58/18/3 59/19/3 64/24/3 
f 64/24/3 59/19/3 60/20/3 65/25/3 
f 66/1/4 67/2/4 68/3/4 69/4/4 
f 69/4/4 68/3/4 70/5/4 71/6/4 
f 71/6/4 70/5/4 72/7/4 73/8/4 
f 73/8/4 72/7/4 74/9/4 75/10/4 
f 11/11/4 66/1/4 69/4/4 12/12/4 
f 12/12/4 69/4/4 71/6/4 13/13/4 
f 13/13/4 71/6/4 73/8/4 14/14/4 
f 14/14/4 73/8/4 75/10/4 15/15/4 
f 76/16/4 11/11/4 12/12/4 77/17/4 
f 77/17/4 12/12/4 13/13/4 78/18/4 
f 78/18/4 13/13/4 14/14/4 79/19/4 
f 79/19/4 14/14/4 15/15/4 80/20/4 
f 81/21/4 76/16/4 77/17/4 82/22/4 
f 82/22/4 77/17/4 78/18/4 83/23/4 
f 83/23/4 78/18/4 79/19/4 84/24/4 
f 84/24/4 79/19/4 80/20/4 85/25/4 
f 86/1/5 87/2/5 88/3/5 89/4/5 
f 89/4/5 88/3/5 90/5/5 91/6/5 
f 91/6/5 90/5/5 92/7/5 93/8/5 
f 93/8/5 92/7/5 94/9/5 95/10/5 
f 96/11/5 86/1/5 89/4/5 97/12/5 
f 97/12/5 89/4/5 91/6/5 98/13/5 
f 98/13/5 91/6/5 93/8/5 99/14/5 
f 99/14/5 93/8/5 95/10/5 100/15/5 
f 101/16/5 96/11/5 97/12/5 102/17/5 
f 102/17/5 97/12/5 98/13/5 103/18/5 
f 103/18/5 98/13/5 99/14/5 104/19/5 
f 104/19/5 99/14/5 100/15/5 105/20/5 
f 106/21/5 101/16/5 102/17/5 107/22/5 
f 107/22/5 102/17/5 103/18/5 108/23/5 
f 108/23/5 103/18/5 104/19/5 109/24/5 
f 109/24/5 104/19/5 105/20/5 110/25/5 
f 111/1/6 112/2/6 113/3/6 114/4/6 
f 114/4/6 113/3/6 115/5/6 116/6/6 
f 116/6/6 115/5/6 117/7/6 118/8/6 
f 118/8/6 117/7/6 119/9/6 120/10/6 
f 121/11/6 111/1/6 114/4/6 122/12/6 
f 122/12/6 114/4/6 116/6/6 123/13/6 
f 123/13/6 116/6/6 118/8/6 124/14/6 
f 124/14/6 118/8/6 120/10/6 125/15/6 
f 126/16/6 121/11/6 122/12/6 127/17/6 
f 127/17/6 122/12/6 123/13/6 128/18/6 
f 128/18/6 123/13/6 124/14/6 129/19/6 
f 129/19/6 124/14/6 125/15/6 130/20/6 
f 131/21/6 126/16/6 127/17/6 132/22/6 
f 132/22/6 127/17/6 128/18/6 133/23/6 
f 133/23/6 128/18/6 129/19/6 134/24/6 
f 134/24/6 129/19/6 130/20/6 135/25/6 
f 136/1/7 137/2/7 138/3/7 139/4/7 
f 139/4/7 138/3/7 140/5/7 141/6/7 
f 141/6/7 140/5/7 142/7/7 143/8/7 
f 143/8/7 142/7/7 144/9/7 145/10/7 
f 146/11/7 136/1/7 139/4/7 147/12/7 
f 147/12/7 139/4/7 141/6/7 148/13/7 
f 148/13/7 141/6/7 143/8/7 149/14/7 
f 149/14/7 143/8/7 145/10/7 150/15/7 
f 151/16/7 146/11/7 147/12/7 152/17/7 
f 152/17/7 147/12/7 148/13/7 153/18/7 
f 153/18/7 148/13/7 149/14/7 154/19/7 
f 154/19/7 149/14/7 150/15/7 155/20/7 
f 156/21/7 151/16/7 152/17/7 157/22/7 
f 157/22/7 152/17/7 153/18/7 158/23/7 
f 158/23/7 153/18/7 154/19/7 159/24/7 
f 159/24/7 154/19/7 155/20/7 160/25/7 
f 161/1/8 162/2/8 163/3/8 164/4/8 
f 164/4/8 163/3/8 165/5/8 166/6/8 
f 166/6/8 165/5/8 167/7/8 168/8/8 
f 168/8/8 167/7/8 169/9/8 170/10/8 
f 171/11/8 161/1/8 164/4/8 172/12/8 
f 172/12/8 164/4/8 166/6/8 173/13/8 
f 173/13/8 166/6/8 168/8/8 174/14/8 
f 174/14/8 168/8/8 170/10/8 175/15/8 
f 176/16/8 171/11/8 172/12/8 177/17/8 
f 177/17/8 172/12/8 173/13/8 178/18/8 
f 178/18/8 173/13/8 174/14/8 179/19/8 
f 179/19/8 174/14/8 175/15/8 180/20/8 
f 181/21/8 176/16/8 177/17/8 182/22/8 
f 182/22/8 177/17/8 178/18/8 183/23/8 
f 183/23/8 178/18/8 179/19/8 184/24/8 
f 184/24/8 179/19/8 180/20/8 185/25/8 
# 128 polygons

